<svg width="16" height="16" viewBox="0 0 16 16" fill="none" xmlns="http://www.w3.org/2000/svg">
<path d="M15.7124 14.3522L15.7363 2.38126C15.7363 1.76333 15.209 1.25444 14.5738 1.25444H3.21198C2.56479 1.25444 2.04944 1.75121 2.04944 2.38126V14.3522C2.04944 14.9701 2.57678 15.479 3.21198 15.479H14.5498C15.197 15.4669 15.7124 14.9701 15.7124 14.3522Z" fill="#58DADF"/>
<path d="M14.7655 1.25444H14.5019C15.185 1.25444 15.7363 1.75121 15.7363 2.38126L15.7124 14.3522C15.7124 14.9701 15.1611 15.479 14.4779 15.479H14.7416C15.4247 15.479 15.976 14.9822 15.976 14.3522L16 2.38126C16 1.75121 15.4487 1.25444 14.7655 1.25444Z" fill="url(#paint0_linear_1472_4)"/>
<path d="M12.1888 16H1.23446C0.551311 16 0 15.5032 0 14.8732L1.70187 2.36914C1.70187 1.75121 2.25318 1.24232 2.93633 1.24232H13.9026C14.5858 1.24232 15.1371 1.73909 15.1371 2.36914L13.4232 14.8732C13.4232 15.4911 12.8719 16 12.1888 16Z" fill="url(#paint1_linear_1472_4)"/>
<path d="M5.20148 0.103391C4.87789 -0.0541213 4.48238 -0.0298887 4.12283 0.163972C3.79923 0.345717 3.51159 0.648626 3.33182 1.03635C3.29586 1.10905 3.27189 1.18174 3.23594 1.25444C3.12807 1.56947 3.08013 1.89661 3.14006 2.19951C3.21197 2.61147 3.4277 2.93861 3.75129 3.09612C3.79923 3.12035 3.85916 3.13247 3.9071 3.13247C4.03893 3.13247 4.17077 3.05977 4.24268 2.92649C4.32657 2.74475 4.25466 2.51454 4.07489 2.42972C3.93107 2.35703 3.87114 2.17528 3.85916 2.07835C3.8232 1.86026 3.87114 1.5937 3.97901 1.36349C4.00298 1.32714 4.01496 1.29079 4.03893 1.25444C4.1468 1.06058 4.3026 0.915184 4.45841 0.818254C4.54231 0.769788 4.72208 0.69709 4.8659 0.769788C4.99774 0.842486 5.08163 1.02423 5.09362 1.24232H5.8247C5.8247 0.73344 5.59699 0.297252 5.20148 0.103391Z" fill="url(#paint2_linear_1472_4)"/>
<path d="M8.04194 0.103391C7.71835 -0.0541213 7.32284 -0.0298887 6.96329 0.163972C6.63969 0.345717 6.35205 0.648626 6.17228 1.03635C6.13632 1.10905 6.11235 1.18174 6.0764 1.25444C5.80074 2.02989 6.00449 2.80533 6.59175 3.10824C6.63969 3.13247 6.69962 3.14459 6.74756 3.14459C6.87939 3.14459 7.01123 3.07189 7.08314 2.93861C7.16704 2.75686 7.09513 2.52665 6.91535 2.44184C6.68763 2.32068 6.59175 1.86026 6.83145 1.36349C6.85542 1.32714 6.86741 1.29079 6.89138 1.25444C6.99924 1.06058 7.15505 0.915184 7.31085 0.818254C7.39475 0.769788 7.57453 0.69709 7.71835 0.769788C7.86217 0.842486 7.93408 1.02423 7.94606 1.24232H8.67715C8.67715 0.73344 8.43745 0.297252 8.04194 0.103391Z" fill="url(#paint3_linear_1472_4)"/>
<path d="M10.8824 0.103391C10.5588 -0.0541213 10.1633 -0.0298887 9.80374 0.163972C9.48014 0.345717 9.1925 0.648626 9.01273 1.03635C8.97677 1.10905 8.9528 1.18174 8.91685 1.25444C8.80898 1.56947 8.76104 1.89661 8.82097 2.19951C8.89288 2.61147 9.10861 2.93861 9.4322 3.09612C9.48014 3.12035 9.54007 3.13247 9.58801 3.13247C9.71984 3.13247 9.85168 3.05977 9.92359 2.92649C10.0075 2.74475 9.93557 2.51454 9.7558 2.42972C9.61198 2.35703 9.55205 2.17528 9.54007 2.07835C9.50411 1.86026 9.55205 1.5937 9.65992 1.36349C9.68389 1.32714 9.69587 1.29079 9.71984 1.25444C9.82771 1.06058 9.98351 0.915184 10.1393 0.818254C10.2232 0.769788 10.403 0.69709 10.5468 0.769788C10.6906 0.842486 10.7625 1.02423 10.7745 1.24232H11.5056C11.5176 0.73344 11.2779 0.297252 10.8824 0.103391Z" fill="url(#paint4_linear_1472_4)"/>
<path d="M13.7348 0.103391C13.4112 -0.0541213 13.0157 -0.0298887 12.6562 0.163972C12.3326 0.345717 12.0449 0.648626 11.8651 1.03635C11.8292 1.10905 11.8052 1.18174 11.7693 1.25444C11.6614 1.56947 11.6135 1.89661 11.6734 2.19951C11.7453 2.61147 11.961 2.93861 12.2846 3.09612C12.3326 3.12035 12.3925 3.13247 12.4404 3.13247C12.5723 3.13247 12.7041 3.05977 12.776 2.92649C12.8599 2.74475 12.788 2.51454 12.6082 2.42972C12.4644 2.35703 12.4045 2.17528 12.3925 2.07835C12.3565 1.86026 12.4045 1.5937 12.5123 1.36349C12.5363 1.32714 12.5483 1.29079 12.5723 1.25444C12.6801 1.06058 12.8359 0.915184 12.9917 0.818254C13.0756 0.769788 13.2554 0.69709 13.3992 0.769788C13.543 0.842486 13.615 1.02423 13.6269 1.24232H14.2262C14.2741 1.24232 14.3221 1.24232 14.358 1.25444C14.358 0.745556 14.1303 0.309368 13.7348 0.103391Z" fill="url(#paint5_linear_1472_4)"/>
<path d="M7.05917 10.6204C6.35206 10.6204 5.63296 10.6204 4.92584 10.6204C4.47041 10.6204 4.20674 10.378 4.18277 9.92972C4.12284 8.82714 4.0749 7.72455 4.01498 6.62197C4.00299 6.35541 4.14681 6.10097 4.38651 5.96769C4.62621 5.83441 4.90187 5.84652 5.08164 6.01615C5.29737 6.22213 5.50112 6.42811 5.71685 6.63408C5.9206 6.82795 6.17228 6.7916 6.38801 6.53715C6.73558 6.11308 7.07116 5.70113 7.41872 5.27706C7.67041 4.97415 8.05393 4.88934 8.30561 5.09531C8.37752 5.14378 8.42546 5.22859 8.46142 5.30129C8.66516 5.70113 8.86891 6.11308 9.07265 6.52504C9.20449 6.7916 9.44419 6.82795 9.71985 6.62197C9.98352 6.42811 10.2592 6.23425 10.5228 6.02827C10.7625 5.84652 11.0502 5.82229 11.2539 5.96769C11.4577 6.11308 11.5176 6.36753 11.4097 6.6462C10.9903 7.74879 10.5588 8.86349 10.1393 9.96607C9.98352 10.378 9.63595 10.6325 9.20449 10.6325C8.49737 10.6204 7.77827 10.6204 7.05917 10.6204ZM7.39475 7.94265C6.98726 7.94265 6.60374 8.26979 6.53183 8.68174C6.45992 9.0937 6.74756 9.43295 7.14307 9.43295C7.55056 9.43295 7.94606 9.0937 8.00599 8.68174C8.0779 8.2819 7.80224 7.94265 7.39475 7.94265Z" fill="white"/>
<path d="M9.57606 12.8982H4.14684C3.88317 12.8982 3.65546 12.668 3.65546 12.3772C3.65546 12.0864 3.87119 11.8562 4.14684 11.8562H9.57606C9.83973 11.8562 10.0674 12.0864 10.0674 12.3772C10.0674 12.668 9.83973 12.8982 9.57606 12.8982Z" fill="white"/>
<defs>
<linearGradient id="paint0_linear_1472_4" x1="14.48" y1="8.36115" x2="16.004" y2="8.36115" gradientUnits="userSpaceOnUse">
<stop stop-color="#9181E9"/>
<stop offset="0.6444" stop-color="#6358EE"/>
</linearGradient>
<linearGradient id="paint1_linear_1472_4" x1="-0.00323595" y1="8.62574" x2="15.1332" y2="8.62574" gradientUnits="userSpaceOnUse">
<stop stop-color="#9181E9"/>
<stop offset="0.6444" stop-color="#6358EE"/>
</linearGradient>
<linearGradient id="paint2_linear_1472_4" x1="4.89341" y1="0.000717093" x2="3.96392" y2="3.1697" gradientUnits="userSpaceOnUse">
<stop stop-color="#54E3DF"/>
<stop offset="0.2739" stop-color="#3CD1E0"/>
<stop offset="1" stop-color="#00A3E1"/>
</linearGradient>
<linearGradient id="paint3_linear_1472_4" x1="7.73572" y1="0.000632297" x2="6.80623" y2="3.16966" gradientUnits="userSpaceOnUse">
<stop stop-color="#54E3DF"/>
<stop offset="0.2739" stop-color="#3CD1E0"/>
<stop offset="1" stop-color="#00A3E1"/>
</linearGradient>
<linearGradient id="paint4_linear_1472_4" x1="10.5786" y1="0.000692874" x2="9.64909" y2="3.16974" gradientUnits="userSpaceOnUse">
<stop stop-color="#54E3DF"/>
<stop offset="0.2739" stop-color="#3CD1E0"/>
<stop offset="1" stop-color="#00A3E1"/>
</linearGradient>
<linearGradient id="paint5_linear_1472_4" x1="13.4221" y1="0.00103208" x2="12.4926" y2="3.17001" gradientUnits="userSpaceOnUse">
<stop stop-color="#54E3DF"/>
<stop offset="0.2739" stop-color="#3CD1E0"/>
<stop offset="1" stop-color="#00A3E1"/>
</linearGradient>
</defs>
</svg>
