<svg width="64" height="64" viewBox="0 0 64 64" fill="none" xmlns="http://www.w3.org/2000/svg">
<path d="M62.8494 57.4087L62.9453 9.52497C62.9453 7.05324 60.836 5.0177 58.2951 5.0177H12.8479C10.2592 5.0177 8.19775 7.00478 8.19775 9.52497V57.4087C8.19775 59.8804 10.3071 61.9159 12.8479 61.9159H58.1993C60.788 61.8675 62.8494 59.8804 62.8494 57.4087Z" fill="#58DADF"/>
<path d="M59.0622 5.0177H58.0075C60.7401 5.0177 62.9453 7.00478 62.9453 9.52497L62.8494 57.4087C62.8494 59.8804 60.6442 61.9159 57.9116 61.9159H58.9663C61.6989 61.9159 63.9041 59.9289 63.9041 57.4087L64 9.52497C64 7.00478 61.7948 5.0177 59.0622 5.0177Z" fill="url(#paint0_linear_1487_55)"/>
<path d="M48.7551 64.0001H4.93783C2.20524 64.0001 0 62.013 0 59.4928L6.80749 9.47663C6.80749 7.0049 9.01273 4.96936 11.7453 4.96936H55.6105C58.3431 4.96936 60.5483 6.95644 60.5483 9.47663L53.6929 59.4928C53.6929 61.9645 51.4876 64.0001 48.7551 64.0001Z" fill="url(#paint1_linear_1487_55)"/>
<path d="M20.806 0.413563C19.5117 -0.216485 17.9296 -0.119555 16.4914 0.65589C15.1971 1.38287 14.0465 2.5945 13.3274 4.14539C13.1836 4.43618 13.0877 4.72697 12.9439 5.01776C12.5124 6.27786 12.3207 7.58643 12.5604 8.79806C12.848 10.4459 13.7109 11.7544 15.0053 12.3845C15.1971 12.4814 15.4368 12.5299 15.6285 12.5299C16.1559 12.5299 16.6832 12.2391 16.9708 11.706C17.3064 10.979 17.0188 10.0582 16.2997 9.7189C15.7244 9.42811 15.4847 8.70113 15.4368 8.3134C15.2929 7.44103 15.4847 6.37479 15.9162 5.45395C16.012 5.30856 16.06 5.16316 16.1559 5.01776C16.5873 4.24232 17.2105 3.66074 17.8338 3.27302C18.1693 3.07915 18.8884 2.78836 19.4637 3.07915C19.9911 3.36994 20.3266 4.09692 20.3746 4.9693H23.2989C23.2989 2.93376 22.3881 1.18901 20.806 0.413563Z" fill="url(#paint2_linear_1487_55)"/>
<path d="M32.1679 0.413563C30.8735 -0.216485 29.2915 -0.119555 27.8533 0.65589C26.5589 1.38287 25.4083 2.5945 24.6892 4.14539C24.5454 4.43618 24.4495 4.72697 24.3057 5.01776C23.2031 8.11954 24.0181 11.2213 26.3671 12.433C26.5589 12.5299 26.7986 12.5783 26.9904 12.5783C27.5177 12.5783 28.045 12.2876 28.3327 11.7544C28.6683 11.0275 28.3806 10.1066 27.6615 9.76736C26.7507 9.28271 26.3671 7.44103 27.3259 5.45395C27.4218 5.30856 27.4698 5.16316 27.5656 5.01776C27.9971 4.24232 28.6203 3.66074 29.2435 3.27302C29.5791 3.07915 30.2982 2.78836 30.8735 3.07915C31.4488 3.36994 31.7364 4.09692 31.7844 4.9693H34.7087C34.7087 2.93376 33.7499 1.18901 32.1679 0.413563Z" fill="url(#paint3_linear_1487_55)"/>
<path d="M43.5297 0.413563C42.2353 -0.216485 40.6533 -0.119555 39.2151 0.65589C37.9207 1.38287 36.7701 2.5945 36.051 4.14539C35.9072 4.43618 35.8113 4.72697 35.6675 5.01776C35.236 6.27786 35.0443 7.58643 35.284 8.79806C35.5716 10.4459 36.4345 11.7544 37.7289 12.3845C37.9207 12.4814 38.1604 12.5299 38.3521 12.5299C38.8795 12.5299 39.4068 12.2391 39.6945 11.706C40.0301 10.979 39.7424 10.0582 39.0233 9.7189C38.448 9.42811 38.2083 8.70113 38.1604 8.3134C38.0166 7.44103 38.2083 6.37479 38.6398 5.45395C38.7357 5.30856 38.7836 5.16316 38.8795 5.01776C39.311 4.24232 39.9342 3.66074 40.5574 3.27302C40.893 3.07915 41.6121 2.78836 42.1874 3.07915C42.7626 3.36994 43.0503 4.09692 43.0982 4.9693H46.0226C46.0705 2.93376 45.1117 1.18901 43.5297 0.413563Z" fill="url(#paint4_linear_1487_55)"/>
<path d="M54.9393 0.413563C53.6449 -0.216485 52.0629 -0.119555 50.6247 0.65589C49.3303 1.38287 48.1797 2.5945 47.4606 4.14539C47.3168 4.43618 47.2209 4.72697 47.0771 5.01776C46.6456 6.27786 46.4539 7.58643 46.6936 8.79806C46.9812 10.4459 47.8442 11.7544 49.1385 12.3845C49.3303 12.4814 49.57 12.5299 49.7618 12.5299C50.2891 12.5299 50.8164 12.2391 51.1041 11.706C51.4397 10.979 51.152 10.0582 50.4329 9.7189C49.8576 9.42811 49.6179 8.70113 49.57 8.3134C49.4262 7.44103 49.6179 6.37479 50.0494 5.45395C50.1453 5.30856 50.1932 5.16316 50.2891 5.01776C50.7206 4.24232 51.3438 3.66074 51.967 3.27302C52.3026 3.07915 53.0217 2.78836 53.597 3.07915C54.1722 3.36994 54.4599 4.09692 54.5078 4.9693H56.9048C57.0966 4.9693 57.2883 4.9693 57.4322 5.01776C57.4322 2.98222 56.5213 1.23747 54.9393 0.413563Z" fill="url(#paint5_linear_1487_55)"/>
<path d="M28.2367 42.4814C25.4082 42.4814 22.5318 42.4814 19.7034 42.4814C17.8816 42.4814 16.827 41.5121 16.7311 39.7189C16.4914 35.3086 16.2996 30.8982 16.0599 26.4879C16.012 25.4216 16.5873 24.4039 17.5461 23.8707C18.5049 23.3376 19.6075 23.3861 20.3266 24.0646C21.1895 24.8885 22.0045 25.7124 22.8674 26.5363C23.6824 27.3118 24.6891 27.1664 25.552 26.1486C26.9423 24.4523 28.2846 22.8045 29.6749 21.1082C30.6816 19.8966 32.2157 19.5573 33.2225 20.3813C33.5101 20.5751 33.7019 20.9144 33.8457 21.2052C34.6607 22.8045 35.4756 24.4523 36.2906 26.1002C36.818 27.1664 37.7768 27.3118 38.8794 26.4879C39.9341 25.7124 41.0367 24.937 42.0914 24.1131C43.0502 23.3861 44.2007 23.2892 45.0157 23.8707C45.8307 24.4523 46.0704 25.4701 45.6389 26.5848C43.961 30.9951 42.2352 35.4539 40.5573 39.8643C39.9341 41.5121 38.5438 42.5299 36.818 42.5299C33.9895 42.4814 31.1131 42.4814 28.2367 42.4814ZM29.579 31.7706C27.949 31.7706 26.415 33.0791 26.1273 34.727C25.8397 36.3748 26.9902 37.7318 28.5723 37.7318C30.2022 37.7318 31.7843 36.3748 32.024 34.727C32.3116 33.1276 31.209 31.7706 29.579 31.7706Z" fill="white"/>
<path d="M38.3042 51.5929H16.5873C15.5326 51.5929 14.6218 50.6721 14.6218 49.5089C14.6218 48.3458 15.4847 47.4249 16.5873 47.4249H38.3042C39.3588 47.4249 40.2697 48.3458 40.2697 49.5089C40.2697 50.6721 39.3588 51.5929 38.3042 51.5929Z" fill="white"/>
<defs>
<linearGradient id="paint0_linear_1487_55" x1="57.92" y1="33.4445" x2="64.0161" y2="33.4445" gradientUnits="userSpaceOnUse">
<stop stop-color="#9181E9"/>
<stop offset="0.6444" stop-color="#6358EE"/>
</linearGradient>
<linearGradient id="paint1_linear_1487_55" x1="-0.0129438" y1="34.503" x2="60.5326" y2="34.503" gradientUnits="userSpaceOnUse">
<stop stop-color="#9181E9"/>
<stop offset="0.6444" stop-color="#6358EE"/>
</linearGradient>
<linearGradient id="paint2_linear_1487_55" x1="19.5737" y1="0.00286837" x2="15.8558" y2="12.6788" gradientUnits="userSpaceOnUse">
<stop stop-color="#54E3DF"/>
<stop offset="0.2739" stop-color="#3CD1E0"/>
<stop offset="1" stop-color="#00A3E1"/>
</linearGradient>
<linearGradient id="paint3_linear_1487_55" x1="30.943" y1="0.00252919" x2="27.225" y2="12.6787" gradientUnits="userSpaceOnUse">
<stop stop-color="#54E3DF"/>
<stop offset="0.2739" stop-color="#3CD1E0"/>
<stop offset="1" stop-color="#00A3E1"/>
</linearGradient>
<linearGradient id="paint4_linear_1487_55" x1="42.3145" y1="0.0027715" x2="38.5965" y2="12.6789" gradientUnits="userSpaceOnUse">
<stop stop-color="#54E3DF"/>
<stop offset="0.2739" stop-color="#3CD1E0"/>
<stop offset="1" stop-color="#00A3E1"/>
</linearGradient>
<linearGradient id="paint5_linear_1487_55" x1="53.6885" y1="0.00412834" x2="49.9705" y2="12.6801" gradientUnits="userSpaceOnUse">
<stop stop-color="#54E3DF"/>
<stop offset="0.2739" stop-color="#3CD1E0"/>
<stop offset="1" stop-color="#00A3E1"/>
</linearGradient>
</defs>
</svg>
