<svg width="512" height="512" viewBox="0 0 512 512" fill="none" xmlns="http://www.w3.org/2000/svg">
<path d="M502.795 459.27L503.563 76.2001C503.563 56.4262 486.688 40.1419 466.361 40.1419H102.784C82.0734 40.1419 65.582 56.0385 65.582 76.2001V459.27C65.582 479.043 82.4569 495.328 102.784 495.328H465.594C486.304 494.94 502.795 479.043 502.795 459.27Z" fill="#58DADF"/>
<path d="M472.497 40.1419H464.06C485.921 40.1419 503.563 56.0385 503.563 76.2001L502.796 459.27C502.796 479.043 485.154 495.328 463.293 495.328H471.73C493.591 495.328 511.233 479.431 511.233 459.27L512 76.2001C512 56.0385 494.358 40.1419 472.497 40.1419Z" fill="url(#paint0_linear_1486_13)"/>
<path d="M390.04 512H39.5026C17.6419 512 0 496.104 0 475.942L54.4599 75.8128C54.4599 56.0389 72.1019 39.7546 93.9625 39.7546H444.884C466.745 39.7546 484.387 55.6512 484.387 75.8128L429.543 475.942C429.543 495.716 411.901 512 390.04 512Z" fill="url(#paint1_linear_1486_13)"/>
<path d="M166.448 3.30851C156.093 -1.73188 143.437 -0.956439 131.931 5.24712C121.576 11.0629 112.372 20.756 106.619 33.1631C105.468 35.4895 104.701 37.8158 103.551 40.1421C100.099 50.2229 98.5649 60.6914 100.483 70.3845C102.784 83.567 109.687 94.0355 120.042 99.0759C121.576 99.8513 123.494 100.239 125.028 100.239C129.247 100.239 133.465 97.9127 135.766 93.6478C138.451 87.832 136.15 80.4652 130.397 77.7512C125.795 75.4249 123.877 69.609 123.494 66.5072C122.343 59.5282 123.877 50.9983 127.329 43.6316C128.096 42.4685 128.48 41.3053 129.247 40.1421C132.698 33.9386 137.684 29.2859 142.67 26.1841C145.354 24.6332 151.107 22.3069 155.709 24.6332C159.928 26.9596 162.613 32.7754 162.996 39.7544H186.391C186.391 23.4701 179.104 9.51206 166.448 3.30851Z" fill="url(#paint2_linear_1486_13)"/>
<path d="M257.343 3.30851C246.988 -1.73188 234.332 -0.956439 222.826 5.24712C212.471 11.0629 203.266 20.756 197.514 33.1631C196.363 35.4895 195.596 37.8158 194.445 40.1421C185.624 64.9563 192.144 89.7706 210.937 99.4636C212.471 100.239 214.388 100.627 215.923 100.627C220.141 100.627 224.36 98.3004 226.661 94.0355C229.346 88.2197 227.045 80.853 221.292 78.1389C214.005 74.2617 210.937 59.5282 218.607 43.6316C219.374 42.4685 219.758 41.3053 220.525 40.1421C223.976 33.9386 228.962 29.2859 233.948 26.1841C236.633 24.6332 242.385 22.3069 246.988 24.6332C251.59 26.9596 253.891 32.7754 254.275 39.7544H277.669C277.669 23.4701 269.999 9.51206 257.343 3.30851Z" fill="url(#paint3_linear_1486_13)"/>
<path d="M348.237 3.30851C337.882 -1.73188 325.226 -0.956439 313.72 5.24712C303.365 11.0629 294.161 20.756 288.408 33.1631C287.257 35.4895 286.49 37.8158 285.34 40.1421C281.888 50.2229 280.354 60.6914 282.272 70.3845C284.573 83.567 291.476 94.0355 301.831 99.0759C303.365 99.8513 305.283 100.239 306.817 100.239C311.036 100.239 315.254 97.9127 317.555 93.6478C320.24 87.832 317.939 80.4652 312.186 77.7512C307.584 75.4249 305.666 69.609 305.283 66.5072C304.132 59.5282 305.666 50.9983 309.118 43.6316C309.885 42.4685 310.269 41.3053 311.036 40.1421C314.487 33.9386 319.473 29.2859 324.459 26.1841C327.143 24.6332 332.896 22.3069 337.499 24.6332C342.101 26.9596 344.402 32.7754 344.785 39.7544H368.18C368.564 23.4701 360.893 9.51206 348.237 3.30851Z" fill="url(#paint4_linear_1486_13)"/>
<path d="M439.514 3.30851C429.159 -1.73188 416.503 -0.956439 404.998 5.24712C394.643 11.0629 385.438 20.756 379.685 33.1631C378.535 35.4895 377.768 37.8158 376.617 40.1421C373.165 50.2229 371.631 60.6914 373.549 70.3845C375.85 83.567 382.753 94.0355 393.108 99.0759C394.643 99.8513 396.56 100.239 398.094 100.239C402.313 100.239 406.532 97.9127 408.833 93.6478C411.517 87.832 409.216 80.4652 403.463 77.7512C398.861 75.4249 396.944 69.609 396.56 66.5072C395.41 59.5282 396.944 50.9983 400.395 43.6316C401.162 42.4685 401.546 41.3053 402.313 40.1421C405.765 33.9386 410.75 29.2859 415.736 26.1841C418.421 24.6332 424.174 22.3069 428.776 24.6332C433.378 26.9596 435.679 32.7754 436.063 39.7544H455.239C456.773 39.7544 458.307 39.7544 459.457 40.1421C459.457 23.8578 452.171 9.89978 439.514 3.30851Z" fill="url(#paint5_linear_1486_13)"/>
<path d="M225.894 339.851C203.266 339.851 180.255 339.851 157.627 339.851C143.053 339.851 134.616 332.097 133.849 317.751C131.931 282.468 130.397 247.186 128.479 211.903C128.096 203.373 132.698 195.231 140.368 190.966C148.039 186.701 156.86 187.089 162.613 192.517C169.516 199.108 176.036 205.699 182.939 212.291C189.459 218.494 197.513 217.331 204.416 209.189C215.538 195.619 226.277 182.436 237.399 168.866C245.453 159.173 257.726 156.459 265.78 163.05C268.081 164.601 269.615 167.315 270.765 169.641C277.285 182.436 283.805 195.619 290.325 208.801C294.544 217.331 302.214 218.494 311.035 211.903C319.473 205.699 328.294 199.496 336.731 192.905C344.401 187.089 353.606 186.313 360.126 190.966C366.646 195.619 368.563 203.761 365.111 212.678C351.688 247.961 337.882 283.632 324.458 318.914C319.473 332.097 308.35 340.239 294.544 340.239C271.916 339.851 248.905 339.851 225.894 339.851ZM236.632 254.165C223.592 254.165 211.32 264.633 209.019 277.816C206.717 290.998 215.922 301.855 228.578 301.855C241.618 301.855 254.274 290.998 256.192 277.816C258.493 265.021 249.672 254.165 236.632 254.165Z" fill="white"/>
<path d="M306.433 412.743H132.698C124.261 412.743 116.974 405.376 116.974 396.071C116.974 386.766 123.877 379.399 132.698 379.399H306.433C314.871 379.399 322.157 386.766 322.157 396.071C322.157 405.376 314.871 412.743 306.433 412.743Z" fill="white"/>
<defs>
<linearGradient id="paint0_linear_1486_13" x1="463.36" y1="267.556" x2="512.129" y2="267.556" gradientUnits="userSpaceOnUse">
<stop stop-color="#9181E9"/>
<stop offset="0.6444" stop-color="#6358EE"/>
</linearGradient>
<linearGradient id="paint1_linear_1486_13" x1="-0.103551" y1="276.024" x2="484.261" y2="276.024" gradientUnits="userSpaceOnUse">
<stop stop-color="#9181E9"/>
<stop offset="0.6444" stop-color="#6358EE"/>
</linearGradient>
<linearGradient id="paint2_linear_1486_13" x1="156.59" y1="0.022947" x2="126.846" y2="101.43" gradientUnits="userSpaceOnUse">
<stop stop-color="#54E3DF"/>
<stop offset="0.2739" stop-color="#3CD1E0"/>
<stop offset="1" stop-color="#00A3E1"/>
</linearGradient>
<linearGradient id="paint3_linear_1486_13" x1="247.544" y1="0.0202335" x2="217.8" y2="101.429" gradientUnits="userSpaceOnUse">
<stop stop-color="#54E3DF"/>
<stop offset="0.2739" stop-color="#3CD1E0"/>
<stop offset="1" stop-color="#00A3E1"/>
</linearGradient>
<linearGradient id="paint4_linear_1486_13" x1="338.516" y1="0.022172" x2="308.772" y2="101.432" gradientUnits="userSpaceOnUse">
<stop stop-color="#54E3DF"/>
<stop offset="0.2739" stop-color="#3CD1E0"/>
<stop offset="1" stop-color="#00A3E1"/>
</linearGradient>
<linearGradient id="paint5_linear_1486_13" x1="429.508" y1="0.0330267" x2="399.764" y2="101.44" gradientUnits="userSpaceOnUse">
<stop stop-color="#54E3DF"/>
<stop offset="0.2739" stop-color="#3CD1E0"/>
<stop offset="1" stop-color="#00A3E1"/>
</linearGradient>
</defs>
</svg>
